<svg xmlns="http://www.w3.org/2000/svg" width="21.303" height="21.303" viewBox="0 0 21.303 21.303"><defs><style>.a{fill:#f9b807;}</style></defs><g transform="translate(0 0)"><path class="a" d="M10.651,21.3A10.651,10.651,0,0,1,3.12,3.12,10.651,10.651,0,0,1,18.183,18.183a10.581,10.581,0,0,1-7.532,3.12Zm0-19.971a9.32,9.32,0,1,0,9.32,9.32A9.33,9.33,0,0,0,10.651,1.331Z" transform="translate(0 0)"/><path class="a" d="M158.751,117.991a2.66,2.66,0,0,0-.76-4.465v-.861a.666.666,0,1,0-1.331,0v.666h-1.331v-.666a.666.666,0,0,0-1.331,0v.666h-1.331a.666.666,0,1,0,0,1.331h.666v6.657h-.666a.666.666,0,1,0,0,1.331H154v.666a.666.666,0,0,0,1.331,0v-.666h1.331v.666a.666.666,0,1,0,1.331,0v-.861a2.66,2.66,0,0,0,.76-4.465Zm-4.088-3.329h2.33a1.331,1.331,0,0,1,0,2.663h-2.33Zm2.33,6.657h-2.33v-2.663h2.33a1.331,1.331,0,1,1,0,2.663Z" transform="translate(-145.676 -107.34)"/></g></svg>