<svg xmlns="http://www.w3.org/2000/svg" width="21" height="21" viewBox="0 0 21 21"><defs><style>.a{fill:#f9b807;}</style></defs><path class="a" d="M10.5,0A10.5,10.5,0,1,0,21,10.5,10.512,10.512,0,0,0,10.5,0Zm0,19.688A9.188,9.188,0,1,1,19.688,10.5,9.2,9.2,0,0,1,10.5,19.688Z"/><g transform="translate(5.25 5.25)"><path class="a" d="M135.5,136.685a2.792,2.792,0,0,1-1.6.5,3.225,3.225,0,0,1-2.824-1.969h2.168a.656.656,0,0,0,0-1.312h-2.57a3.935,3.935,0,0,1,0-1.312h3.226a.656.656,0,0,0,0-1.312h-2.824a3.225,3.225,0,0,1,2.824-1.969,2.792,2.792,0,0,1,1.6.5.656.656,0,0,0,.74-1.084,4.141,4.141,0,0,0-2.339-.731,4.648,4.648,0,0,0-4.253,3.281h-1a.656.656,0,0,0,0,1.313h.714a3.757,3.757,0,0,0,0,1.313h-.714a.656.656,0,0,0,0,1.313h1a4.648,4.648,0,0,0,4.253,3.281,4.141,4.141,0,0,0,2.339-.731.656.656,0,0,0-.74-1.084Z" transform="translate(-128 -128)"/></g></svg>